<svg width="1200" height="600" viewBox="0 0 1200 600" fill="none" xmlns="http://www.w3.org/2000/svg">
  <rect width="1200" height="600" rx="32" fill="#EFF6FF"/>
  <rect x="72" y="82" width="1056" height="436" rx="28" fill="url(#paint0_linear)"/>
  <rect x="118" y="136" width="334" height="200" rx="24" fill="#FFFFFF" fill-opacity="0.9"/>
  <rect x="506" y="132" width="274" height="124" rx="24" fill="#FFFFFF" fill-opacity="0.85"/>
  <rect x="820" y="132" width="230" height="234" rx="24" fill="#4F46E5" fill-opacity="0.9"/>
  <rect x="124" y="366" width="510" height="72" rx="20" fill="#FFFFFF" fill-opacity="0.85"/>
  <rect x="818" y="406" width="224" height="56" rx="18" fill="#F59E0B"/>
  <path d="M178 220C178 171.026 217.026 132 266 132H290C338.974 132 378 171.026 378 220V250H178V220Z" fill="#1D4ED8"/>
  <path d="M214 250H342V322C342 344.091 324.091 362 302 362H254C231.909 362 214 344.091 214 322V250Z" fill="#2563EB"/>
  <defs>
    <linearGradient id="paint0_linear" x1="164" y1="130" x2="920" y2="500" gradientUnits="userSpaceOnUse">
      <stop stop-color="#4F46E5"/>
      <stop offset="1" stop-color="#2563EB"/>
    </linearGradient>
  </defs>
</svg>
